<?xml version="1.0" encoding="UTF-8"?>
<!DOCTYPE svg PUBLIC "-//W3C//DTD SVG 1.1//EN" "http://www.w3.org/Graphics/SVG/1.1/DTD/svg11.dtd">
<!-- Creator: CorelDRAW X7 -->
<svg xmlns="http://www.w3.org/2000/svg" xml:space="preserve" width="298.5mm" height="82.5mm" version="1.1" style="shape-rendering:geometricPrecision; text-rendering:geometricPrecision; image-rendering:optimizeQuality; fill-rule:evenodd; clip-rule:evenodd"
viewBox="0 0 29850000 8250000"
 xmlns:xlink="http://www.w3.org/1999/xlink">
 <defs>
  <style type="text/css">
   <![CDATA[
    .fil0 {fill:white}
    .fil1 {fill:white;fill-rule:nonzero}
   ]]>
  </style>
 </defs>
 <g id="Layer_x0020_1">
  <metadata id="CorelCorpID_0Corel-Layer"/>
  <path class="fil0" d="M2176180 1073640c1315880,1698330 2265880,1568490 3281420,1514910 213160,-813530 778570,-1445390 1274470,-1905670 -1873600,-821840 -3683180,-320680 -4555890,390760z"/>
  <path class="fil0" d="M5350980 3202410c-104120,837180 -92710,1193590 136530,2005930 -968860,130520 -1205590,58040 -2153340,-67510 -84540,-724890 2660,-1441860 262010,-2160370 445320,147800 942130,230500 1466240,230500 97200,0 193390,-2990 288560,-8550z"/>
  <path class="fil0" d="M5606130 5647430c-729680,70260 -1465170,89000 -2188890,-16010 160830,724700 491220,1459360 990650,2213250 794840,-113070 1733020,-423920 2285750,-801870 -452970,-409360 -858420,-852130 -1087510,-1395370z"/>
  <path class="fil0" d="M466610 7536320c999370,137820 1751650,195690 2945620,-86230 -309610,-565440 -524850,-1252920 -609760,-2007460 -804400,-183380 -1297730,-520810 -1824560,-862490 -429650,1145160 -554710,1747950 -511300,2956180z"/>
  <path class="fil0" d="M2765340 4925120c-891200,-278640 -1421760,-628500 -2031610,-1242180 242890,-879100 673990,-1289090 1197130,-1877030 258340,385740 654020,716190 1142250,959530 -198870,585890 -311090,1249950 -311090,1953610 0,69100 1180,137780 3320,206070z"/>
  <path class="fil1" d="M10803840 6671150c-463650,224250 -1071260,336370 -1819780,336370 -975780,0 -1744000,-286370 -2303110,-860630 -560620,-574270 -839420,-1339450 -839420,-2295550 0,-1018220 313640,-1844010 942450,-2477370 628820,-633350 1445510,-950030 2448590,-950030 621240,0 1145500,78790 1571270,236370l0 1380360c-425770,-254570 -910640,-381830 -1456120,-381830 -597000,0 -1080350,187880 -1447020,563650 -366690,375770 -550020,884880 -550020,1527330 0,615180 172720,1106110 519710,1471280 345470,365150 812160,548500 1398540,548500 559110,0 1071260,-136370 1534910,-409110l0 1310660zm3689540 336370c-912160,0 -1654610,-296980 -2228880,-889430 -574260,-593960 -860630,-1366710 -860630,-2319780 0,-1006100 290910,-1819760 874260,-2441000 583370,-621240 1354600,-933370 2316760,-933370 909130,0 1644000,298500 2204630,892460 560640,595480 840940,1380360 840940,2353120 0,1000040 -290910,1807650 -872760,2419790 -580320,612150 -1339440,918210 -2274320,918210zm62120 -5348680c-503060,0 -903070,187880 -1198540,566680 -295460,377290 -443950,875800 -443950,1497030 0,630330 148490,1128830 443950,1497030 295470,366670 683370,550020 1162180,550020 495470,0 886390,-178800 1177310,-534870 289400,-357590 434860,-851550 434860,-1484910 0,-660630 -140910,-1174290 -421230,-1540960 -281820,-366690 -666680,-550020 -1154580,-550020zm9868570 5238080l-1447030 0 -2624340 -4000160c-153040,-233340 -260620,-409100 -319710,-527290l-16680 0c22730,224240 34860,568200 34860,1028830l0 3498620 -1354610 0 0 -6365400 1545530 0 2525850 3874390c115150,175770 221220,348500 319700,519720l18200 0c-24250,-146970 -36380,-439420 -36380,-874280l0 -3519830 1354610 0 0 6365400zm5272930 0l-3818340 0 0 -6365400 3671360 0 0 1166710 -2236460 0 0 1416720 2081910 0 0 1162170 -2081910 0 0 1456120 2383440 0 0 1163680z"/>
 </g>
</svg>
