<?xml version="1.0" encoding="UTF-8"?>
<!DOCTYPE svg PUBLIC "-//W3C//DTD SVG 1.1//EN" "http://www.w3.org/Graphics/SVG/1.1/DTD/svg11.dtd">
<!-- Creator: CorelDRAW X7 -->
<svg xmlns="http://www.w3.org/2000/svg" xml:space="preserve" width="165mm" height="42mm" version="1.1" style="shape-rendering:geometricPrecision; text-rendering:geometricPrecision; image-rendering:optimizeQuality; fill-rule:evenodd; clip-rule:evenodd"
viewBox="0 0 16500000 4200000"
 xmlns:xlink="http://www.w3.org/1999/xlink">
 <defs>
  <style type="text/css">
   <![CDATA[
    .fil0 {fill:white;fill-rule:nonzero}
   ]]>
  </style>
 </defs>
 <g id="Layer_x0020_1">
  <metadata id="CorelCorpID_0Corel-Layer"/>
  <path class="fil0" d="M1825530 835990l0 -756320c0,-28640 14330,-42960 42980,-42960l438310 0c28650,0 42970,14320 42970,42960l0 2995160c0,28640 -14320,42980 -42970,42980l-1336430 0c-137520,0 -254970,-35100 -352380,-105290 -97410,-70180 -177610,-159700 -240640,-268570 -63030,-108860 -109570,-227760 -139650,-356670 -30080,-128910 -45130,-253530 -45130,-373850 0,-169030 15050,-323730 45130,-464100 30080,-140390 76620,-259990 139650,-358830 63030,-98820 143230,-175460 240640,-229890 97410,-54430 214860,-81660 352380,-81660l812170 0c28650,0 42970,-14310 42970,-42960zm0 610200c0,-28650 -14320,-42980 -42970,-42980l-468390 0c-88810,0 -169750,7880 -242790,23650 -73060,15750 -136090,45830 -189080,90240 -53010,44390 -93830,106700 -122470,186930 -28650,80210 -42980,183340 -42980,309400 0,117450 14330,213420 42980,287900 28640,74490 68740,133220 120320,176200 51560,42960 113870,73040 186930,90240 73040,17180 155410,25780 247090,25780l468390 0c28650,0 42970,-14330 42970,-42980l0 -1104380zm2072110 803580l1589980 0c28640,0 42960,-14320 42960,-42980l0 -446900c0,-134650 -19330,-256410 -58010,-365260 -38660,-108870 -99540,-201260 -182630,-277170 -83070,-75930 -189080,-134650 -317980,-176200 -128920,-41530 -282190,-62310 -459820,-62310 -143230,0 -285750,17920 -427570,53730 -141800,35810 -269290,98120 -382440,186930 -113170,88800 -204840,208410 -275020,358810 -70190,150400 -105290,340200 -105290,569390 0,189060 20770,350930 62310,485580 41550,134650 111720,245650 210560,333030 98840,87370 229190,151110 391040,191230 161870,40110 363130,60160 603770,60160l726220 0c28650,0 42980,-14340 42980,-42980l0 -438310c0,-28660 -14330,-42970 -42980,-42970l-1022740 0c-60160,0 -117450,-7890 -171880,-23630 -54430,-15770 -100990,-37250 -139650,-64460 -38680,-27220 -69480,-58730 -92390,-94540 -22930,-35820 -34380,-75210 -34380,-118170 0,-28650 14320,-42980 42960,-42980zm0 -502780c-28640,0 -42960,-14320 -42960,-42960 0,-54450 21480,-103860 64460,-148250 42960,-44410 96670,-81660 161130,-111740 64460,-30080 131790,-53710 201980,-70910 70190,-17180 133930,-25780 191230,-25780 180480,0 320850,32230 421120,96690 100270,64460 150400,151120 150400,259990 0,28640 -14320,42960 -42960,42960l-1104400 0zm2660850 889530l0 438310c0,28640 14320,42980 42960,42980l1405200 0c97410,0 176900,-24350 238490,-73060 61590,-48700 109590,-106710 143970,-174030 34380,-67330 58010,-136090 70890,-206270 12900,-70190 19350,-126760 19350,-169740 0,-148970 -12180,-272870 -36530,-371710 -24350,-98840 -61600,-176900 -111720,-234190 -50150,-57300 -115320,-98130 -195530,-122470 -80220,-24350 -176180,-36530 -287920,-36530l-627400 0c-42960,0 -75190,-18620 -96670,-55860 -21500,-37250 -32230,-74490 -32230,-111740 0,-40100 10020,-76630 30080,-109570 20050,-32950 52990,-49430 98820,-49430l1125880 0c28650,0 42980,-14310 42980,-42960l0 -438320c0,-28650 -14330,-42980 -42980,-42980l-928200 0c-146100,0 -271440,8600 -376010,25800 -104550,17180 -190510,50130 -257820,98820 -67330,48710 -117470,117470 -150420,206280 -32940,88810 -49410,204830 -49410,348060 0,97410 10030,186930 30080,268590 20050,81640 51560,151830 94540,210560 42980,58720 100270,104570 171880,137510 71630,32940 159000,49420 262140,49420l674660 0c57290,0 95260,18610 113870,55860 18630,37240 27950,74490 27950,111720 0,20060 -1440,42260 -4300,66610 -2870,24360 -10750,46560 -23650,66610 -12880,20060 -30790,36530 -53710,49420 -22910,12890 -54430,19340 -94540,19340l-1181740 0c-28640,0 -42960,14310 -42960,42970zm2978830 438310c0,28640 14330,42980 42980,42980l438320 0c28650,0 42960,-14340 42960,-42980l0 -2152900c0,-28650 -14310,-42980 -42960,-42980l-438320 0c-28650,0 -42980,14330 -42980,42980l0 2152900zm0 -2995160l0 438320c0,28650 14330,42980 42980,42980l438320 0c28650,0 42960,-14330 42960,-42980l0 -438320c0,-28640 -14310,-42960 -42960,-42960l-438320 0c-28650,0 -42980,14320 -42980,42960zm1788510 3467860l0 395340c0,28640 14320,42970 42970,42970l1289170 0c77340,0 150400,-19330 219150,-58010 68750,-38680 128910,-87370 180490,-146100 51560,-58740 92390,-123190 122470,-193380 30080,-70190 45110,-135360 45110,-195520l0 -2303300c0,-74490 -21480,-128200 -64460,-161150 -42960,-32950 -100270,-49430 -171880,-49430l-992650 0c-154700,0 -288640,25800 -401790,77360 -113160,51560 -205550,119600 -277170,204110 -71630,84520 -124620,181200 -159000,290070 -34380,108850 -51560,222020 -51560,339480l0 275020c0,169030 27930,318710 83790,449060 55860,130340 128200,240640 217010,330890 88800,90240 188360,158280 298650,204110 110300,45840 221310,68760 333040,68760l640280 0 0 107430c0,25780 -710,55150 -2150,88090 -1430,32950 -7160,63030 -17190,90240 -10020,27220 -25070,50850 -45120,70900 -20040,20060 -48710,30080 -85940,30080l-1160250 0c-28650,0 -42970,14330 -42970,42980zm356670 -1534100l0 -111740c0,-154700 30790,-276450 92390,-365260 61590,-88810 161140,-133220 298650,-133220l562940 0c28640,0 42970,14330 42970,42980l0 1104380c0,28650 -14330,42980 -42970,42980l-275020 0c-131790,0 -241360,-11470 -328740,-34380 -87370,-22920 -156850,-58730 -208420,-107430 -51560,-48710 -88090,-108870 -109570,-180490 -21490,-71610 -32230,-157570 -32230,-257820zm3142130 -550040c0,-25800 13610,-50150 40820,-73060 27220,-22920 56580,-34380 88100,-34380l416830 0c60160,0 116020,5010 167580,15050 51580,10010 96690,27930 135370,53710 38680,25780 68760,61590 90240,107420 21480,45840 32230,104570 32230,176200l0 1366500c0,28640 14320,42980 42980,42980l434000 0c31520,0 47280,-14340 47280,-42980l0 -1456740c0,-94540 -18610,-186220 -55860,-275040 -37250,-88810 -89520,-167580 -156850,-236340 -67320,-68760 -145380,-123900 -234210,-165450 -88800,-41530 -184770,-62310 -287900,-62310l-971170 0c-91680,0 -166870,29370 -225610,88110 -58730,58720 -88090,123900 -88090,195510l0 1783350c0,45830 9310,85940 27930,120320 18630,34380 47990,51570 88100,51570l287910 0c80220,0 120320,-45850 120320,-137520l0 -1516900z"/>
 </g>
</svg>
