<?xml version="1.0" encoding="UTF-8"?>
<!DOCTYPE svg PUBLIC "-//W3C//DTD SVG 1.1//EN" "http://www.w3.org/Graphics/SVG/1.1/DTD/svg11.dtd">
<!-- Creator: CorelDRAW X7 -->
<svg xmlns="http://www.w3.org/2000/svg" xml:space="preserve" width="210mm" height="297mm" version="1.1" style="shape-rendering:geometricPrecision; text-rendering:geometricPrecision; image-rendering:optimizeQuality; fill-rule:evenodd; clip-rule:evenodd"
viewBox="0 0 21000 29700"
 xmlns:xlink="http://www.w3.org/1999/xlink">
 <defs>
  <style type="text/css">
   <![CDATA[
    .str0 {stroke:white;stroke-width:20}
    .fil0 {fill:white}
   ]]>
  </style>
 </defs>
 <g id="Layer_x0020_1">
  <metadata id="CorelCorpID_0Corel-Layer"/>
  <polygon class="fil0 str0" points="4363,20054 4265,19674 3928,18199 3760,17666 3012,17054 1944,16134 1290,15535 1080,15399 670,15476 653,15614 860,16538 1380,17626 1716,18315 1916,18771 2213,19277 2599,19902 3159,20534 3627,21106 4017,21455 4578,21922 4596,21414 4526,20828 4440,20445 "/>
  <polygon class="fil0 str0" points="9687,22522 9363,22620 8964,22736 8558,22917 8198,23068 7866,23224 7632,23376 7477,23485 6949,23331 6461,23141 5836,22837 5223,22437 4844,22120 4849,21692 4852,21291 4766,20767 4631,20251 4575,19963 4659,19394 4737,18845 4834,18655 5009,18638 5589,18747 6165,18868 6716,18967 7218,19039 7588,19096 7937,19142 8143,19252 8592,19755 8978,20158 9344,20565 9732,20984 10166,21444 10214,21654 10127,21915 9969,22196 9869,22339 "/>
  <polygon class="fil0 str0" points="15122,23229 15406,23178 15687,23112 16774,22705 17801,22200 17889,22091 17783,22031 17429,22000 17072,21968 16644,21909 15990,21761 15478,21640 15032,21579 14298,21975 13700,22274 13572,22341 13296,22563 13791,22741 14338,22949 14560,23031 14837,23127 "/>
  <polygon class="fil0 str0" points="13036,22452 12655,22298 12360,22177 12061,22060 11857,22092 11590,22134 11319,22183 11107,22222 10936,22254 10681,22297 10479,22342 10057,22450 10233,22202 10359,21989 10447,21711 10437,21492 10352,21255 10180,21068 9767,20648 9422,20292 9088,19918 8696,19521 8348,19125 8166,19003 8818,18161 9337,17473 9553,17343 9919,17404 10522,17582 12054,18023 13169,18330 13683,18471 13912,18573 14045,18781 14399,19979 14771,21051 14813,21433 14119,21819 13471,22141 13136,22384 "/>
  <polygon class="fil0 str0" points="4406,19268 4436,19424 4529,18736 4697,18417 5018,18384 5773,18546 6587,18708 7288,18827 7788,18897 7992,18075 8211,17256 8309,16821 8206,16547 7709,16196 6650,15338 5891,14629 5132,13760 4796,13439 4498,13360 3866,13594 3033,13771 2643,13873 2659,14744 2696,15813 2717,16524 3279,17011 3912,17507 4011,17590 4191,18235 4320,18801 "/>
  <polygon class="fil0 str0" points="2386,16222 2506,16319 2490,15563 2445,14597 2402,13687 2347,13351 2068,12952 1662,12343 1210,11695 961,11251 849,11169 784,11391 841,12273 1023,13492 1223,14504 1370,15335 2023,15923 "/>
  <polygon class="fil0 str0" points="18457,20753 18933,20012 19577,18646 19781,18119 19853,17652 19858,17253 19712,17040 18603,16942 17534,16774 16421,16514 15700,16381 15296,16671 14609,17247 14094,17680 13527,18185 13775,18244 14083,18366 14166,18456 14312,18742 14556,19549 14834,20377 14986,20912 15064,21386 15378,21418 15959,21526 16596,21680 17422,21801 17944,21365 "/>
  <polygon class="fil0 str0" points="12911,17681 12744,17906 9575,17040 9208,17215 8111,18672 8467,17291 8567,16844 8461,16456 7853,15958 7210,15456 6032,14412 6531,13291 7036,12259 7167,12002 7597,11957 8771,11930 9899,11863 11137,11811 11417,11794 11642,11883 11916,12241 12336,13189 13241,15156 13626,15891 13705,16200 13255,17077 "/>
  <polygon class="fil0 str0" points="5226,13453 5516,13780 5680,12693 6004,10778 5920,10421 4969,9404 4213,8397 3772,7703 3628,7419 3494,7396 3331,7526 2225,9354 1734,10860 1581,11785 2119,12574 2538,13176 2613,13612 3084,13525 3624,13398 3986,13289 4497,13084 4643,13098 4851,13179 "/>
  <polygon class="fil0 str0" points="16617,16305 17136,16430 17671,15465 18058,14646 18054,14153 17681,13107 17385,12273 17182,11534 17059,11162 16839,11057 16106,11140 14965,11275 14090,11349 13207,11387 12878,11438 12552,11729 12210,12198 12673,13199 13120,14181 13544,15110 13897,15784 14018,16204 13861,16575 13544,17127 13230,17690 12990,18023 13231,18098 13590,17744 14044,17367 14434,17036 14815,16719 15580,16116 16100,16197 "/>
  <polygon class="fil0 str0" points="10613,11492 11033,11461 11271,10603 11207,10221 10774,9325 10236,8161 9681,6996 9433,6428 9208,6178 9000,6109 7984,6613 7246,6977 6798,7207 6518,7364 6222,7669 5896,8258 5341,9422 6109,10244 6227,10537 6264,10895 5866,13276 5726,14058 5858,14210 6121,13554 6404,12904 6983,11709 7075,11646 7504,11631 8262,11612 9218,11570 "/>
  <polygon class="fil0 str0" points="18798,16731 18942,16742 19003,16631 19293,16071 19623,15339 19863,14845 20063,14196 20207,13690 20328,13049 20393,12568 20522,11668 20522,10939 20339,10727 19762,10847 18687,11011 17982,11105 17586,11147 17401,11245 17434,11468 17588,11933 17805,12594 18099,13452 18324,14162 18361,14595 17933,15558 17424,16501 17760,16574 18120,16638 18527,16698 "/>
  <polygon class="fil0 str0" points="15774,10941 15988,10895 16200,10381 16302,9981 16133,8928 15787,7751 15589,6941 15385,6109 15138,5580 14960,5405 14403,5413 13388,5707 12989,5827 11933,6133 11265,6340 10889,6534 10504,7013 10176,7451 10713,8626 11476,10172 11561,10528 11477,11028 11334,11477 11583,11478 11777,11555 11914,11710 12041,11919 12272,11583 12482,11360 12773,11130 13405,11094 14262,11057 15302,10984 "/>
  <polygon class="fil0 str0" points="9387,5729 9297,5938 9126,5826 8935,5769 8272,6120 7102,6732 6700,6935 6349,7163 6025,7495 5700,8021 5159,9211 4977,8982 4467,8259 4239,7893 4366,7658 4651,7139 5070,6408 5513,5775 5544,5722 5615,5652 6313,4705 7110,3812 7867,3113 8188,2883 8354,2858 8493,3081 8828,4128 9272,5293 "/>
  <polygon class="fil0 str0" points="19558,9963 19399,10657 18426,10783 17539,10906 17283,11018 17170,10894 16984,10827 16359,10856 16537,10392 16655,9935 16514,9140 16310,8323 15997,7201 15775,6372 16196,5983 16431,5864 17172,5740 18037,5585 18824,5453 19048,5468 19267,5639 19413,6034 19564,7360 19651,8569 19625,9271 "/>
  <polygon class="fil0 str0" points="13693,5348 13821,5292 13955,4941 13995,4615 13877,4184 13567,3323 13130,2062 12972,1662 12712,1493 12151,1650 11203,2113 10303,2608 9786,3020 9321,3402 9020,3830 9641,5538 9659,5745 9568,6055 9771,6448 10088,7119 10341,6836 10770,6306 10984,6147 11385,6026 12296,5734 13072,5512 "/>
  <polygon class="fil0 str0" points="18366,4618 18333,5145 17948,5211 17425,5302 16727,5443 16283,5531 16015,5682 15689,5979 15627,6079 15443,5472 15192,5222 15046,5108 14731,5091 14406,5094 14122,5206 14271,4896 14339,4593 14263,4271 14083,3697 13766,2837 13479,2074 13883,1679 14748,1174 15701,727 16490,519 16953,476 17165,565 17336,764 17579,1254 17860,2229 18084,3041 18267,3903 "/>
  <polygon class="fil0 str0" points="9642,22825 10071,22695 11369,22421 12038,22301 12932,22629 14249,23132 15087,23423 15306,23543 15392,23923 15278,24003 14418,24220 13683,24258 13119,24283 12658,24272 11859,24246 11124,24195 10285,24080 9568,23951 8852,23789 7842,23561 8183,23360 8765,23095 9253,22930 "/>
 </g>
</svg>
