<?xml version="1.0" encoding="UTF-8"?>
<!DOCTYPE svg PUBLIC "-//W3C//DTD SVG 1.1//EN" "http://www.w3.org/Graphics/SVG/1.1/DTD/svg11.dtd">
<!-- Creator: CorelDRAW X7 -->
<svg xmlns="http://www.w3.org/2000/svg" xml:space="preserve" width="215.9mm" height="279.4mm" version="1.1" style="shape-rendering:geometricPrecision; text-rendering:geometricPrecision; image-rendering:optimizeQuality; fill-rule:evenodd; clip-rule:evenodd"
viewBox="0 0 21590 27940"
 xmlns:xlink="http://www.w3.org/1999/xlink">
 <defs>
  <style type="text/css">
   <![CDATA[
    .fil0 {fill:white}
   ]]>
  </style>
 </defs>
 <g id="Layer_x0020_1">
  <metadata id="CorelCorpID_0Corel-Layer"/>
  <g id="_656388368">
   <g>
    <path class="fil0" d="M21580 20210c45,350 -61,655 -320,914l-3040 3017c-137,152 -316,282 -537,388 -221,107 -438,176 -651,206 -16,0 -62,4 -138,11 -76,8 -175,12 -297,12 -289,0 -758,-50 -1405,-149 -648,-99 -1440,-343 -2377,-731 -938,-389 -2000,-971 -3189,-1749 -1188,-777 -2453,-1843 -3794,-3199 -1066,-1052 -1950,-2057 -2651,-3017 -701,-960 -1265,-1848 -1691,-2663 -427,-815 -747,-1554 -960,-2217 -214,-663 -359,-1234 -435,-1714 -76,-480 -106,-857 -91,-1132 15,-274 23,-426 23,-457 30,-213 99,-430 205,-651 107,-221 237,-400 389,-537l3040 -3040c213,-213 457,-320 731,-320 198,0 373,57 526,171 152,115 282,256 388,423l2446 4640c137,244 175,510 114,800 -61,289 -190,533 -388,731l-1120 1120c-31,31 -57,80 -80,149 -23,68 -35,126 -35,171 61,320 199,686 412,1097 183,366 465,812 846,1337 380,526 921,1132 1622,1817 686,701 1295,1246 1829,1635 533,388 979,674 1337,857 358,183 632,293 823,331l285 57c31,0 80,-11 149,-34 68,-23 118,-50 148,-80l1303 -1326c275,-244 594,-365 960,-365 259,0 465,45 617,137l23 0 4411 2605c320,199 511,450 572,755z"/>
   </g>
  </g>
  <g id="_656386288">
  </g>
  <g id="_656393392">
  </g>
  <g id="_656387216">
  </g>
  <g id="_656391728">
  </g>
  <g id="_656390416">
  </g>
  <g id="_656393552">
  </g>
  <g id="_656392368">
  </g>
  <g id="_656392336">
  </g>
  <g id="_656393296">
  </g>
  <g id="_656390032">
  </g>
  <g id="_656390384">
  </g>
  <g id="_656393616">
  </g>
  <g id="_656392784">
  </g>
  <g id="_657133712">
  </g>
  <g id="_657139408">
  </g>
 </g>
</svg>
