<?xml version="1.0" encoding="UTF-8"?>
<!DOCTYPE svg PUBLIC "-//W3C//DTD SVG 1.1//EN" "http://www.w3.org/Graphics/SVG/1.1/DTD/svg11.dtd">
<!-- Creator: CorelDRAW X7 -->
<svg xmlns="http://www.w3.org/2000/svg" xml:space="preserve" width="297mm" height="210mm" version="1.1" style="shape-rendering:geometricPrecision; text-rendering:geometricPrecision; image-rendering:optimizeQuality; fill-rule:evenodd; clip-rule:evenodd"
viewBox="0 0 29700 21000"
 xmlns:xlink="http://www.w3.org/1999/xlink">
 <defs>
  <style type="text/css">
   <![CDATA[
    .str0 {stroke:white;stroke-width:105.83;stroke-linecap:round;stroke-linejoin:round}
    .fil0 {fill:white;fill-rule:nonzero}
   ]]>
  </style>
 </defs>
 <g id="Layer_x0020_1">
  <metadata id="CorelCorpID_0Corel-Layer"/>
  <path class="fil0 str0" d="M8281 4664c-338,179 -761,269 -1267,269 -653,0 -1175,-210 -1567,-630 -393,-420 -589,-972 -589,-1654 0,-733 221,-1326 663,-1778 441,-453 1001,-679 1679,-679 435,0 795,63 1081,189l0 573c-329,-184 -691,-275 -1087,-275 -527,0 -954,175 -1281,527 -328,352 -492,822 -492,1411 0,559 153,1005 459,1335 307,332 707,498 1205,498 460,0 860,-102 1196,-306l0 520zm3864 269c-651,0 -1171,-214 -1562,-643 -391,-428 -588,-986 -588,-1673 0,-738 200,-1327 599,-1766 398,-439 942,-659 1629,-659 633,0 1143,214 1530,640 387,427 581,985 581,1674 0,748 -199,1339 -596,1775 -396,435 -927,652 -1593,652zm38 -4254c-481,0 -872,173 -1173,521 -301,348 -451,804 -451,1369 0,566 146,1020 440,1365 292,344 676,516 1146,516 504,0 900,-163 1191,-492 290,-329 434,-789 434,-1379 0,-606 -140,-1074 -421,-1405 -282,-330 -671,-495 -1166,-495zm7918 4178l-660 0 -2360 -3657c-60,-92 -110,-188 -148,-288l-18 0c16,99 25,308 25,630l0 3315 -538 0 0 -4588 698 0 2297 3599c96,149 158,251 185,307l13 0c-21,-132 -32,-357 -32,-675l0 -3231 538 0 0 4588zm4800 0l-2431 0 0 -4588 2329 0 0 486 -1792 0 0 1527 1658 0 0 482 -1658 0 0 1607 1894 0 0 486z"/>
  <path class="fil0" d="M2509 11669l0 -204c-122,107 -211,160 -271,160 -33,0 -49,-17 -49,-50 0,-14 7,-43 20,-88 50,-143 74,-281 74,-414 0,-192 -41,-392 -124,-598 -35,-107 -78,-160 -131,-160 -26,0 -47,12 -64,35 -78,91 -152,218 -223,383 -71,164 -129,344 -175,536 -46,195 -69,366 -69,515 0,283 85,423 256,423 85,0 199,-51 342,-151 143,-101 282,-231 414,-387zm110 -1687l35 -145c74,-324 140,-588 199,-788 60,-200 121,-370 184,-508 63,-140 125,-239 186,-301 100,-107 278,-160 537,-160 114,0 198,6 253,18 56,11 101,33 134,63 -114,353 -193,619 -237,795 -43,177 -92,418 -144,726 -81,504 -122,958 -122,1363 0,267 22,545 67,834 44,287 117,607 217,961 -126,88 -246,162 -361,224 -114,62 -223,110 -327,146 -103,35 -194,53 -273,53 -137,0 -234,-68 -291,-203 -47,-111 -79,-200 -92,-268 -15,-67 -40,-255 -75,-563 -318,333 -621,594 -913,784 -290,191 -521,286 -694,286 -199,0 -362,-81 -489,-244 -127,-161 -190,-371 -190,-627 0,-229 50,-485 148,-765 98,-282 234,-554 406,-817 114,-172 231,-319 351,-438 119,-120 255,-230 407,-332 275,-181 504,-271 690,-271 90,0 221,59 394,177zm4920 2153c109,-74 193,-148 248,-221 127,-156 224,-333 293,-533 53,-131 97,-277 127,-439 31,-161 46,-313 46,-453 0,-131 -26,-196 -81,-196 -76,0 -192,167 -348,503 -92,203 -168,404 -226,605 -58,201 -87,374 -87,519 0,51 10,121 28,215zm7 114c27,142 119,213 278,213 177,0 408,-104 693,-313 165,-121 276,-182 333,-182 71,0 137,20 199,57 62,38 93,77 93,118 0,42 -34,98 -104,167 -125,125 -270,248 -433,368 -164,120 -321,220 -473,298 -152,80 -303,144 -455,190 -152,46 -286,69 -405,69 -296,0 -533,-85 -710,-255 -178,-170 -267,-395 -267,-678 0,-216 47,-460 141,-732 93,-272 219,-526 378,-764 187,-278 418,-509 690,-694 337,-223 658,-335 967,-335 223,0 398,70 524,212 127,141 190,335 190,583 0,191 -50,393 -150,601 -101,209 -250,411 -447,602 -161,162 -319,288 -474,378 -155,91 -291,135 -408,135 -52,0 -105,-13 -160,-38zm4826 1138c140,-8 267,-75 381,-204 115,-130 172,-271 172,-421 0,-104 -34,-188 -102,-249 -74,-74 -237,-147 -493,-217 -378,-109 -623,-231 -737,-366 -107,-110 -160,-239 -160,-391 0,-272 99,-545 297,-818 198,-272 450,-495 759,-670 308,-173 618,-261 930,-261 152,0 294,36 427,107 132,72 238,165 316,283 79,118 117,245 117,382 0,135 -42,276 -127,420 -86,144 -193,264 -323,360 -128,96 -251,145 -367,145 -67,0 -124,-15 -173,-43 -48,-29 -72,-59 -72,-92 0,-34 9,-83 29,-147 53,-204 80,-381 80,-532 0,-150 -45,-292 -136,-424 -115,80 -192,144 -227,192 -91,104 -160,222 -210,354 -55,136 -82,263 -82,383 0,85 19,155 59,204 39,51 103,95 192,130 88,37 223,75 404,118 301,74 513,144 636,213 29,17 72,51 132,104 90,97 134,223 134,377 0,164 -51,329 -152,496 -102,168 -260,340 -474,517 -227,193 -453,330 -678,412 -226,84 -474,125 -747,125 -262,0 -470,-52 -620,-156 -151,-104 -226,-246 -226,-427 0,-129 50,-259 149,-390 100,-132 224,-239 370,-321 148,-84 294,-125 435,-125 106,0 160,24 160,71 0,24 -15,62 -45,117 -91,166 -137,319 -137,460 0,99 36,194 109,284zm4617 -117c-106,-7 -203,-56 -291,-145 -87,-95 -149,-198 -187,-309 -36,-110 -54,-252 -54,-428 0,-391 73,-832 218,-1325 146,-491 311,-848 495,-1069 73,-92 175,-138 305,-138 137,0 247,63 331,188 84,126 126,290 126,494 0,301 -43,654 -130,1058 -86,405 -206,825 -362,1262 -61,174 -137,293 -227,355 -61,38 -134,57 -216,57l-8 0zm428 -3581c-222,-8 -334,-141 -334,-402 0,-130 33,-282 97,-454 65,-171 139,-298 222,-381 42,-46 86,-77 130,-97 43,-18 99,-28 168,-28 118,0 206,29 260,88 56,58 84,154 84,288 0,169 -29,329 -88,480 -57,150 -134,271 -231,365 -97,93 -197,141 -298,141l-10 0zm5315 1812l0 15 -15 -15c-13,5 -33,8 -56,8 -46,4 -102,7 -171,7 -120,0 -181,-23 -181,-68 0,-23 16,-52 46,-85 91,-102 169,-235 235,-402 65,-165 102,-315 109,-451 0,-33 2,-62 7,-89 3,-9 4,-18 5,-24 1,-7 2,-13 2,-18 0,-33 -23,-50 -68,-50 -92,0 -235,100 -427,299 -121,128 -235,279 -342,455 -107,174 -190,350 -250,525 -59,176 -88,334 -88,473 0,137 34,206 103,206 67,0 233,-111 501,-334 120,-104 318,-255 590,-452zm-182 760l-96 71c-8,8 -18,16 -34,28 -16,12 -35,28 -58,46 -411,321 -732,545 -965,676 -234,130 -437,196 -610,196 -192,0 -346,-71 -464,-210 -118,-140 -176,-328 -176,-562 0,-291 83,-593 248,-905 164,-312 382,-598 651,-859 271,-261 567,-470 890,-628 321,-157 633,-236 934,-236 296,0 522,51 677,153 155,102 233,254 233,458 0,171 -68,383 -203,634 97,7 169,37 215,91 45,53 68,136 68,250 0,184 -38,442 -114,773 -75,330 -169,635 -277,914 -133,355 -322,662 -570,922 -187,197 -420,366 -698,508 -276,140 -515,211 -714,211 -167,0 -315,-67 -446,-199 -129,-134 -195,-283 -195,-449 0,-112 28,-227 85,-347 57,-119 131,-222 221,-307 185,-188 457,-365 816,-534 67,-33 118,-50 153,-50 15,0 28,6 39,18 12,11 18,25 18,39 0,17 -14,49 -42,96 -72,121 -135,276 -189,464 -55,188 -82,351 -82,489 0,161 26,241 75,241 26,0 59,-29 98,-87 38,-59 74,-124 105,-197 202,-512 333,-985 392,-1419 5,-65 10,-161 15,-289zm5049 -903l213 -250c215,-240 386,-418 514,-536 126,-117 240,-200 342,-253 101,-52 202,-77 307,-77 168,0 287,45 357,135 69,91 103,246 103,469 0,92 -10,228 -29,409 -30,239 -44,465 -44,676 0,236 12,428 35,575 17,90 41,181 75,270 23,85 35,144 35,174 0,39 -14,68 -42,90 -74,63 -171,119 -291,166 -122,47 -223,72 -306,72 -136,0 -258,-47 -368,-139 -110,-93 -196,-221 -256,-384 -60,-164 -91,-349 -91,-556 0,-137 15,-300 43,-487l-15 -14c-100,114 -183,204 -246,270 -63,66 -121,129 -176,188 -266,304 -490,577 -675,822 -71,94 -135,177 -195,249 -88,87 -188,131 -298,131 -152,0 -276,-57 -370,-171 -95,-113 -142,-260 -142,-441 0,-112 13,-247 38,-409 27,-161 62,-333 106,-517 44,-184 96,-372 157,-567 59,-195 126,-379 197,-555 109,-291 243,-518 401,-682 106,-107 236,-160 389,-160 248,0 371,160 371,480 0,236 -51,572 -152,1008l13 14z"/>
 </g>
</svg>
