<?xml version="1.0" encoding="UTF-8"?>
<!DOCTYPE svg PUBLIC "-//W3C//DTD SVG 1.1//EN" "http://www.w3.org/Graphics/SVG/1.1/DTD/svg11.dtd">
<!-- Creator: CorelDRAW X7 -->
<svg xmlns="http://www.w3.org/2000/svg" xml:space="preserve" width="210mm" height="297mm" version="1.1" style="shape-rendering:geometricPrecision; text-rendering:geometricPrecision; image-rendering:optimizeQuality; fill-rule:evenodd; clip-rule:evenodd"
viewBox="0 0 21000 29700"
 xmlns:xlink="http://www.w3.org/1999/xlink">
 <defs>
  <style type="text/css">
   <![CDATA[
    .str0 {stroke:black;stroke-width:20}
    .fil0 {fill:black}
   ]]>
  </style>
 </defs>
 <g id="Layer_x0020_1">
  <metadata id="CorelCorpID_0Corel-Layer"/>
  <polygon class="fil0 str0" points="4049,20160 4229,20212 3950,18988 3810,18547 3189,18039 2304,17276 1761,16779 1587,16666 994,16643 981,16757 1405,17611 1836,18513 2115,19085 2316,19412 2559,19649 2829,19854 3187,20010 3445,20058 3625,20100 3767,20118 3905,20131 "/>
  <polygon class="fil0 str0" points="8462,22369 8378,22467 7664,22370 7089,22212 6724,22118 6487,22034 6353,21978 6212,21918 5913,21699 5463,21299 4944,20830 4488,20401 4541,19947 4620,19524 4701,19367 4846,19353 5214,19483 5640,19596 6196,19709 6520,19725 6985,19732 7208,19768 7442,19905 7719,20240 7986,20514 8409,20967 8763,21298 9001,21522 8975,21692 8725,22019 "/>
  <polygon class="fil0 str0" points="9045,22681 8961,22731 9074,22889 9197,23137 9336,23485 9577,24132 9768,24292 10423,24387 10970,24362 11474,24297 11936,24184 12220,24046 12467,23861 12489,23489 12436,23321 12217,23214 11717,23155 11246,23004 10723,22811 10249,22581 9941,22416 9692,22429 9338,22584 "/>
  <polygon class="fil0 str0" points="12784,23399 12719,23562 13967,23129 14934,22832 15508,22585 15582,22494 15494,22444 15085,22448 14725,22382 14345,22238 13851,21990 13502,21836 13189,21888 12547,22163 12054,22368 11591,22672 11383,22842 11789,22957 12200,23046 12536,23102 12758,23191 "/>
  <polygon class="fil0 str0" points="11201,22722 11116,22752 10322,22414 9940,22182 9637,22224 9086,22469 8762,22613 8529,22542 8824,22190 9141,21786 9193,21604 9178,21447 8763,21093 8473,20735 8183,20431 7795,20009 7628,19839 7436,19691 8006,18957 8436,18387 8614,18279 8918,18329 9419,18477 10832,18908 11622,19120 12040,19214 12230,19299 12341,19471 12634,20464 12943,21354 12866,21561 12751,21696 12301,22024 11865,22258 11519,22489 "/>
  <polygon class="fil0 str0" points="4342,19991 4367,20077 4448,19434 4582,19131 4822,19138 5481,19355 6163,19501 6728,19524 7156,19529 7320,18885 7502,18207 7583,17845 7498,17618 7085,17327 6207,16616 5578,16028 4948,15306 4730,15095 4548,15031 3891,15214 3207,15316 2856,15377 2897,16123 2928,17010 2945,17599 3411,18003 3936,18414 4019,18484 4168,19018 4264,19534 "/>
  <polygon class="fil0 str0" points="2671,17349 2770,17429 2757,16802 2719,16001 2684,15246 2658,14996 2407,14637 2070,14131 1695,13594 1489,13226 1396,13158 1342,13342 1389,14073 1540,15084 1706,15923 1828,16613 2369,17101 "/>
  <polygon class="fil0 str0" points="14157,21915 14801,22188 15357,21850 16181,21320 16689,20822 16726,20619 16490,20723 16232,20774 15944,20797 15729,20751 14980,21322 14353,21774 "/>
  <polygon class="fil0 str0" points="15292,20902 15457,20783 15583,20647 15892,20376 16161,19869 16267,19317 16281,18963 16240,18773 16098,18712 15389,18634 14714,18491 13866,18252 13298,18102 13001,18073 12820,18142 12312,18538 11799,18969 12103,19026 12342,19127 12488,19221 12602,19459 12792,20128 13008,20815 13127,21258 13147,21490 13089,21668 12718,21903 12634,21975 13040,21779 13197,21702 13542,21637 13959,21838 14499,21463 14953,21118 "/>
  <polygon class="fil0 str0" points="11400,18559 11262,18745 8580,17974 8329,18080 7379,19356 7691,18186 7761,17845 7666,17523 7142,17120 6577,16674 5694,15848 6108,14918 6527,14061 6636,13848 6992,13811 7967,13789 8902,13734 9929,13691 10161,13676 10348,13750 10575,14047 10923,14833 11674,16465 11993,17075 12059,17330 11685,18058 "/>
  <polygon class="fil0 str0" points="5033,15181 5300,15429 5319,14428 5348,13448 5220,13191 4430,12348 3803,11513 3437,10937 3318,10701 3207,10682 3072,10790 2709,11719 2507,12399 2474,13452 2462,14308 2785,14758 2831,15073 3192,15007 3678,14932 3943,14871 4421,14746 4542,14757 4715,14824 "/>
  <polygon class="fil0 str0" points="1817,13472 2296,14201 2304,13193 2319,12468 2230,12279 2142,11982 2150,11485 2089,11337 1960,11709 1850,12404 1785,13134 "/>
  <polygon class="fil0 str0" points="16465,19218 16394,19551 17080,18855 17498,18328 17721,18051 17840,17832 18006,17547 18030,17370 17855,17330 17386,17433 16746,17448 16298,17379 16065,17413 15694,17742 15240,18233 15135,18373 15559,18463 15959,18537 16334,18592 16465,18735 16474,18950 "/>
  <polygon class="fil0 str0" points="14156,18079 14625,18242 15097,17363 15418,16684 15394,16307 15204,14950 15038,13994 14942,13461 14821,13193 14605,13124 14033,13177 13061,13276 12352,13310 11646,13339 11372,13381 11102,13622 10819,14011 11202,14842 11573,15656 11925,16426 12218,16986 12318,17334 12188,17642 11925,18099 11665,18566 11456,18855 11656,18915 11963,18611 12340,18298 12749,17991 12989,17863 13217,17870 13728,17990 "/>
  <polygon class="fil0 str0" points="9494,13425 9842,13400 10040,12689 9986,12371 9628,11628 9181,10663 8721,9697 8516,9226 8329,9018 8156,8961 7313,9379 6655,9737 6000,10128 5706,10322 5512,10644 5153,11344 4692,12309 5376,13044 5529,13331 5484,15186 5437,15574 5547,15700 5768,15136 6003,14597 6484,13606 6560,13553 6915,13541 7544,13525 8337,13490 "/>
  <polygon class="fil0 str0" points="4213,11640 4409,11838 4563,11026 4685,10395 4770,9959 4671,9614 4420,9022 4283,8559 4223,8176 4144,8086 4044,8240 3825,8964 3580,9834 3419,10485 3826,11124 "/>
  <polygon class="fil0 str0" points="15803,17331 16054,17192 16216,17172 16467,17195 16880,17223 17226,16105 17345,15685 17446,15153 17606,14318 17712,13572 17713,12967 17561,12791 17082,12891 16191,13027 15606,13104 15277,13140 15097,13263 15065,13351 15148,13552 15269,14205 15402,15075 15615,16704 15248,17459 14811,18270 14932,18302 15158,17983 15521,17598 "/>
  <polygon class="fil0 str0" points="13775,12968 13952,12930 14128,12504 14212,12172 14073,11299 13785,10323 13621,9651 13452,8961 13247,8522 13099,8377 12637,8384 11795,8627 11465,8727 10589,8980 10034,9153 9723,9313 9404,9711 9131,10074 9577,11049 10210,12330 10280,12626 10211,13041 10092,13413 10298,13414 10459,13478 10573,13606 10679,13780 10870,13501 11044,13316 11285,13126 11810,13095 12521,13065 13384,13005 "/>
  <polygon class="fil0 str0" points="8477,8646 8403,8819 8260,8726 8102,8679 7552,8970 6582,9478 5830,9930 5608,10102 5359,10533 5037,11201 4619,12083 4579,12025 4729,11309 4932,10255 4971,9988 4882,9765 4776,9506 5349,8582 5928,7796 6589,7056 7216,6476 7483,6285 7620,6264 7736,6450 8014,7318 8382,8284 "/>
  <polygon class="fil0 str0" points="16847,12172 16670,12607 15901,12729 15354,12818 15036,12933 14805,12821 14259,12868 14408,12486 14505,12109 14388,11455 14219,10782 13960,9857 13775,9174 14125,8853 14319,8756 14934,8654 15652,8525 16304,8417 16490,8429 16672,8570 16793,8896 16918,9988 16990,10984 17009,11482 "/>
  <polygon class="fil0 str0" points="12049,8330 12155,8283 12299,7721 12201,7365 11944,6650 11582,5605 11451,5273 11235,5132 10770,5262 9983,5646 9237,6057 8821,6319 8508,6702 8191,7214 8667,8518 8682,8689 8627,8916 8796,9242 9059,9798 9268,9564 9625,9124 9802,8993 10135,8892 10890,8650 11533,8466 "/>
  <polygon class="fil0 str0" points="15925,7724 15897,8161 15578,8216 15144,8291 14565,8409 14197,8481 13975,8606 13704,8853 13652,8936 13500,8433 13292,8225 13171,8131 12910,8116 12640,8119 12405,8212 12585,7703 12521,7437 12372,6961 12109,6247 11871,5614 12206,5286 12923,4868 13714,4497 14368,4325 14753,4289 14929,4363 15070,4528 15271,4934 15505,5743 15691,6417 15843,7131 "/>
  <polygon class="fil0 str0" points="2621,19923 2939,20095 3480,20294 4127,20373 4456,20585 5162,21299 5820,21828 6267,22199 7067,22424 7984,22609 8573,22728 8902,22979 9125,23482 9361,24077 9031,24038 8408,24091 7847,24088 7217,24233 7077,24261 6923,24407 6847,25412 6835,25703 6029,25293 5788,25121 5518,25227 5165,25386 4200,25545 4342,24963 4663,23987 4965,23437 5039,23142 4907,22960 4762,22781 4446,22341 4002,21923 3501,21420 3038,20664 2750,20162 "/>
 </g>
</svg>
