<?xml version="1.0" encoding="UTF-8"?>
<!DOCTYPE svg PUBLIC "-//W3C//DTD SVG 1.1//EN" "http://www.w3.org/Graphics/SVG/1.1/DTD/svg11.dtd">
<!-- Creator: CorelDRAW X7 -->
<svg xmlns="http://www.w3.org/2000/svg" xml:space="preserve" width="120mm" height="410mm" version="1.1" style="shape-rendering:geometricPrecision; text-rendering:geometricPrecision; image-rendering:optimizeQuality; fill-rule:evenodd; clip-rule:evenodd"
viewBox="0 0 12000000 41000000"
 xmlns:xlink="http://www.w3.org/1999/xlink">
 <defs>
  <style type="text/css">
   <![CDATA[
    .fil0 {fill:#003229}
    .fil2 {fill:#75D6A3}
    .fil1 {fill:#1CBC67;fill-rule:nonzero}
   ]]>
  </style>
 </defs>
 <g id="Layer_x0020_1">
  <metadata id="CorelCorpID_0Corel-Layer"/>
  <path class="fil0" d="M10433230 37484750c19590,16940 38800,34410 57550,52300 18750,17890 37100,36230 54990,54970 -17870,-18760 -36240,-37080 -54990,-54970 -18770,-17890 -37960,-35360 -57550,-52300zm-1041770 -14779710c755260,0 1367490,612230 1367490,1367470 0,755220 -612230,1367450 -1367490,1367450 -755240,0 -1367480,-612230 -1367480,-1367450 0,-755240 612240,-1367470 1367480,-1367470zm-7226380 -7253870c724560,0 1311910,587350 1311910,1311890 0,724510 -587350,1311860 -1311910,1311860 -724530,0 -1311880,-587350 -1311880,-1311860 0,-724540 587350,-1311890 1311880,-1311890zm7226380 -7220450c786760,0 1244160,436140 1244160,1222880 0,255810 112960,495920 -5080,703420 -92750,163040 -216800,306030 -363920,420720 -241450,188220 -545230,13890 -875160,13890 -786770,0 -1191060,-351290 -1191060,-1138030 0,-786740 404290,-1222880 1191060,-1222880zm-7226380 -7411730c731900,0 1325200,593300 1325200,1325190 0,731880 -593300,1325180 -1325200,1325180 -731910,0 -1325210,-593300 -1325210,-1325180 0,-731890 593300,-1325190 1325210,-1325190zm0 29211130c746620,0 1351850,605230 1351850,1351850 0,746590 -605230,1351830 -1351850,1351830 -746630,0 -1351870,-605240 -1351870,-1351830 0,-746620 605240,-1351850 1351870,-1351850zm8380690 7561920c17870,18770 35360,37940 52280,57530 -16920,-19590 -34410,-38760 -52280,-57530zm170700 212010c36440,53880 69670,110080 99490,168270 -29820,-58220 -63050,-114390 -99490,-168270zm-2749580 99450c18190,-31610 37440,-62570 57640,-92750 -20200,30240 -39450,61140 -57640,92750zm180470 -253930c16980,-19590 34430,-38760 52320,-57530 -17890,18790 -35340,37940 -52320,57530zm52320 -57550c17890,-18760 36220,-37080 54970,-54970 18790,-17890 37960,-35320 57550,-52300 -19590,16940 -38800,34410 -57550,52300 -18750,17890 -37080,36210 -54970,54970zm203450 -180510c31220,-23350 63290,-45570 96160,-66640 -32870,21070 -64940,43290 -96160,66640zm129330 -87340c33410,-20290 67560,-39420 102510,-57330 -34950,17910 -69100,37040 -102510,57330zm1992480 1238770l-483330 471190 114130 665380c8160,47880 -11610,96460 -50940,125030 -22180,16150 -48650,24330 -75120,24330 -20300,0 -40730,-4830 -59400,-14640l-597490 -314210 -597640 314210c-43010,22560 -95160,18790 -134600,-9590 -39190,-28610 -58960,-77020 -50780,-125010l114170 -665340 -483410 -471290c-34890,-33950 -47320,-84670 -32460,-130940 15100,-46300 54920,-79950 103140,-86910l668180 -97120 298790 -605460c21450,-43680 65870,-71210 114490,-71210 48730,0 92990,27530 114500,71170l298970 605380 668190 97180c48050,6900 88110,40590 102950,86850 15020,46310 2450,97110 -32340,131000z"/>
  <path class="fil1" d="M8192230 39903620c159930,158140 347550,281460 551130,365110 202650,83270 422590,127300 648090,127300 470740,0 896910,-190800 1205350,-499260 308450,-308440 499250,-734620 499250,-1205370 0,-470770 -190800,-896950 -499250,-1205410 -308440,-308460 -734610,-499260 -1205350,-499260 -225470,0 -445380,44030 -648050,127310 -203570,83630 -391200,206960 -551150,365090l-137730 136160 -136890 -138450 -4425050 -4475980c-161270,132230 -340700,238940 -531870,317500 -251110,103190 -521150,157760 -795630,157760 -578240,0 -1101780,-234440 -1480750,-613410 -378960,-378970 -613380,-902520 -613380,-1480770 0,-578260 234420,-1101820 613380,-1480810 378970,-378970 902510,-613400 1480750,-613400 274470,0 544480,54570 795590,157740 191190,78560 370620,185290 531900,317510l4425050 -4475990 137280 -138870 138100 136580c160280,158510 347610,281820 550300,365100 202670,83270 422630,127300 648150,127300 470740,0 896910,-190800 1205350,-499240 308450,-308460 499250,-734650 499250,-1205370 0,-470740 -190800,-896940 -499260,-1205410 -308450,-308470 -734610,-499280 -1205340,-499280 -225460,0 -445380,44030 -648050,127320 -203570,83630 -391190,206960 -551150,365120l-137730 136160 -136890 -138450 -4425050 -4475980c-161270,132220 -340700,238930 -531870,317470 -251120,103180 -521160,157750 -795630,157750 -578230,0 -1101790,-234430 -1480750,-613380 -378960,-378980 -613380,-902510 -613380,-1480760 0,-578250 234400,-1101790 613370,-1480720 378960,-378960 902530,-613370 1480760,-613370 274480,0 544520,54550 795660,157720 191160,78520 370570,185220 531830,317410l4425060 -4475890 136880 -138420 137740 136130c159960,158100 347610,281400 551200,365040 202650,83270 422540,127300 648000,127300 470710,0 896880,-190820 1205340,-499260 308460,-308460 499260,-734640 499260,-1205360 0,-470750 -190800,-896940 -499260,-1205430 -308450,-308470 -734630,-499280 -1205340,-499280 -225460,0 -445360,44040 -648010,127300 -203570,83660 -391230,206980 -551190,365120l-137730 136180 -136890 -138460 -4425050 -4475960c-161250,132220 -340680,238930 -531830,317460 -251140,103180 -521190,157730 -795670,157730 -578230,0 -1101790,-234420 -1480750,-613380 -378960,-378970 -613380,-902510 -613380,-1480750 0,-578240 234420,-1101780 613390,-1480740 378960,-378970 902500,-613390 1480740,-613390 274480,0 544550,54560 795670,157750 250200,102790 480310,253860 675890,447250l-272320 276900c-159960,-158150 -347590,-281480 -551140,-365110 -202670,-83270 -422610,-127300 -648100,-127300 -470720,0 -896900,190810 -1205360,499280 -308470,308460 -499280,734640 -499280,1205360 0,470720 190810,896900 499270,1205370 308460,308460 734640,499280 1205370,499280 225490,0 445420,-44030 648100,-127300 203550,-83630 391180,-206940 551140,-365080l137740 -136160 136870 138450 4425050 4475960c161280,-132220 340730,-238930 531880,-317500 251120,-103180 521130,-157750 795590,-157750 578220,0 1101770,234420 1480720,613400 378960,378980 613370,902540 613370,1480800 0,578220 -234410,1101780 -613370,1480730 -378960,378950 -902480,613370 -1480720,613370 -274430,0 -544460,-54550 -795570,-157730 -191160,-78530 -370580,-185240 -531870,-317450l-4425080 4475910 -136870 138430 -137740 -136150c-159930,-158100 -347580,-281380 -551150,-365010 -202670,-83260 -422600,-127280 -648090,-127280 -470730,0 -896930,190800 -1205380,499260 -308460,308430 -499260,734600 -499260,1205340 0,470720 190810,896910 499270,1205380 308460,308460 734640,499270 1205370,499270 225470,0 445390,-44040 648060,-127310 203590,-83640 391240,-206960 551180,-365090l137740 -136180 136870 138470 4425050 4475980c161270,-132220 340690,-238960 531840,-317500 251130,-103200 521170,-157760 795630,-157760 578250,0 1101770,234420 1480720,613400 378960,378970 613370,902540 613370,1480780 0,578250 -234410,1101780 -613360,1480740 -378950,378950 -902480,613360 -1480730,613360 -274510,0 -544590,-54560 -795720,-157750 -191560,-78700 -371060,-185290 -532080,-317140l-4424720 4475650 -136870 138440 -137740 -136150c-159960,-158130 -347620,-281470 -551220,-365120 -202640,-83270 -422550,-127310 -648020,-127310 -470720,0 -896900,190830 -1205370,499300 -308460,308490 -499270,734680 -499270,1205430 0,470730 190810,896920 499270,1205390 308470,308480 734650,499300 1205370,499300 225480,0 445410,-44040 648060,-127320 203580,-83640 391210,-206960 551180,-365110l137740 -136180 136870 138460 4425050 4475980c161270,-132230 340690,-238940 531840,-317470 251130,-103190 521170,-157750 795630,-157750 578240,0 1101780,234410 1480730,613370 378950,378960 613360,902510 613360,1480790 0,578250 -234410,1101810 -613360,1480750 -378950,378960 -902490,613370 -1480730,613370 -274480,0 -544550,-54560 -795670,-157740 -250220,-102820 -480310,-253890 -675870,-447260l272320 -276900z"/>
  <g id="_614846736">
  </g>
  <g id="_614842416">
  </g>
  <g id="_614843248">
  </g>
  <g id="_614842768">
  </g>
  <g id="_614844560">
  </g>
  <g id="_614844016">
  </g>
  <g id="_614846800">
  </g>
  <g id="_614848144">
  </g>
  <g id="_614847472">
  </g>
  <g id="_614847184">
  </g>
  <g id="_614849296">
  </g>
  <g id="_614849136">
  </g>
  <g id="_614844528">
  </g>
  <g id="_614844592">
  </g>
  <g id="_614844784">
  </g>
  <g id="_725529264">
  </g>
  <g id="_725524880">
  </g>
  <g id="_725528528">
  </g>
  <g id="_725518672">
  </g>
  <g id="_725520784">
  </g>
  <g id="_725529616">
  </g>
  <g id="_725520240">
  </g>
  <g id="_725523056">
  </g>
  <g id="_725524816">
  </g>
  <g id="_725524912">
  </g>
  <g id="_725519024">
  </g>
  <g id="_725529680">
  </g>
  <g id="_725526224">
  </g>
  <g id="_725530800">
  </g>
  <g id="_725532144">
  </g>
  <g id="_725534288">
  </g>
  <g id="_725524144">
  </g>
  <g id="_725526000">
  </g>
  <g id="_725531568">
  </g>
  <g id="_725523888">
  </g>
  <g id="_725529136">
  </g>
  <g id="_725522992">
  </g>
  <g id="_725532208">
  </g>
  <g id="_725531888">
  </g>
  <g id="_725533776">
  </g>
  <g id="_725523792">
  </g>
  <g id="_725523696">
  </g>
  <g id="_725525040">
  </g>
  <g id="_725523536">
  </g>
  <path class="fil2" d="M2165080 719640c786770,0 1424550,637800 1424550,1424540 0,786750 -637780,1424550 -1424550,1424550 -786760,0 -1424540,-637800 -1424540,-1424550 0,-786740 637780,-1424540 1424540,-1424540zm7873000 9031660l0 312930c0,0 -265390,293390 -638720,293390 -469630,0 -638690,-293390 -638690,-293390l0 -339520 551410 322270c39370,23040 87980,24630 128770,4090l597230 -299770zm-646640 27515540c786740,0 1424520,637780 1424520,1424540 0,786750 -637780,1424530 -1424520,1424530 -786770,0 -1424550,-637780 -1424550,-1424530 0,-786760 637780,-1424540 1424550,-1424540zm1012890 1295170l-424870 414200 100290 584900c7180,42100 -10240,84730 -44780,109880 -19530,14200 -42770,21460 -66030,21460 -17830,0 -35820,-4270 -52270,-12920l-525250 -276120 -525280 276120c-37840,19940 -83650,16570 -118320,-8420 -34540,-25170 -51880,-67720 -44620,-109900l100330 -584900 -424950 -414260c-30720,-29820 -41610,-74440 -28540,-115110 13240,-40650 48350,-70250 90690,-76400l587240 -85410 262810 -532160c18790,-38420 57900,-62670 100620,-62670 42810,0 81720,24250 100650,62610l262790 532160 587360 85410c42240,6090 77450,35730 90450,76400 13330,40670 2180,85310 -28320,115130zm-8239250 -8604610c786750,0 1424550,637800 1424550,1424550 0,786740 -637800,1424540 -1424550,1424540 -786740,0 -1424540,-637800 -1424540,-1424540 0,-786750 637800,-1424550 1424540,-1424550zm-290580 2066200l-335230 -343270c-25950,-26590 -68560,-27110 -95150,-1140 -26590,25950 -27100,68570 -1150,95160l335230 343260c25950,26580 68600,27140 95200,1150 26570,-25950 27050,-68570 1100,-95160zm-534540 13960c-36840,48730 -34080,118140 9940,163220 43980,45020 113350,49530 162940,13840 61050,55530 155180,55060 214980,-3310l-379660 -388830c-59840,58440 -62430,152730 -8200,215080zm1553610 -438370c256130,-250110 261030,-660480 10950,-916570 -250110,-256150 -660500,-261030 -916610,-10930 -108060,105500 -170990,239550 -189110,378540 -15910,121790 -40960,246910 -73180,365590l-154040 150430 415280 425260 149970 -146410c116930,-27780 257670,-53510 373690,-65840 139450,-14820 274940,-74480 383050,-180070zm6497890 -8951240c786760,0 1424540,637800 1424540,1424540 0,786750 -637780,1424550 -1424540,1424550 -786750,0 -1424530,-637800 -1424530,-1424550 0,-786740 637780,-1424540 1424530,-1424540zm93590 1530630l0 -42100c0,-51270 -41610,-92870 -92870,-92870 -51300,0 -92850,41600 -92850,92870l0 42100c0,51240 41550,92850 92850,92850 51260,0 92870,-41570 92870,-92850zm63690 51340c-20550,67360 -82560,116830 -156560,116830 -73980,0 -135990,-49430 -156580,-116830l-639690 0c-40370,0 -78530,-9410 -112750,-25670l0 424720c0,82950 67850,150790 150770,150790l1516430 20c82950,0 150790,-67860 150790,-150790l20 -424720c-34210,16300 -72370,25710 -112700,25710l-639730 -60 0 0zm633390 -762680l-362000 0c-21800,-136730 -140300,-241590 -283020,-241590l-290040 0c-142750,0 -261150,104860 -283050,241590l-361880 0c-86410,0 -157080,67860 -157080,150780l0 348040c0,83250 67520,150790 150790,150790l632550 20c2140,-43320 20790,-82400 50230,-110580 900,-820 1950,-1520 2890,-2360 6520,-6020 13290,-11670 20740,-16570 2620,-1740 5650,-2970 8400,-4550 6110,-3510 12130,-7180 18730,-9870 5170,-2140 10750,-3410 16160,-5010 4690,-1400 9150,-3250 14000,-4210 10570,-2170 21460,-3290 32590,-3290 11170,0 22000,1160 32510,3270 4850,980 9320,2830 14030,4210 5440,1620 10930,2870 16170,5050 6550,2730 12550,6340 18670,9850 2740,1620 5770,2830 8480,4610 7420,4840 14160,10490 20700,16510 940,860 2100,1520 2920,2440 29500,28200 48070,67180 50220,110560l632570 0c83280,0 150780,-67500 150780,-150770l0 -348050c0,-83030 -70670,-150870 -157060,-150870zm-1072860 0c19240,-58120 73420,-100450 137880,-100450l290040 0c64430,0 118600,42310 137810,100450l-565730 0zm-6944170 -8128730c786750,0 1424550,637780 1424550,1424550 0,786740 -637800,1424520 -1424550,1424520 -786740,0 -1424540,-637780 -1424540,-1424520 0,-786770 637800,-1424550 1424540,-1424550zm794850 1152070l-37300 -88440c127760,-288700 119260,-297280 94470,-322330l-163200 -159410 -16160 -13660 -18970 0c-9910,0 -39690,0 -287760,112510l-91300 -36820c-117980,-292490 -130100,-292490 -164630,-292490l-230200 0c-34490,0 -47910,-60 -157370,293550l-90880 36900c-167650,-70770 -265960,-106630 -292490,-106630l-21740 680 -175530 172110c-26610,25030 -35940,33850 99120,318120l-37200 88140c-298800,115490 -298800,126720 -298800,162070l0 225690c0,35440 0,47890 299850,155300l37160 87960c-127730,288560 -119140,297220 -94340,322030l163180 159650 16250 13980 18990 0c9830,0 39200,0 287620,-112770l91120 37040c118040,292490 130150,292410 164770,292410l230260 0c35190,0 47670,0 157420,-293470l91390 -36920c167430,70790 265520,106770 291890,106770l21900 -640 176850 -173130c25170,-25410 34000,-34170 -100330,-317240l36940 -88210c299250,-115640 299250,-127770 299250,-162320l0 -225470c-60,-35520 -60,-47950 -300230,-154960zm-794930 647950c-211090,0 -382990,-168520 -382990,-375650 0,-206960 171900,-375340 382990,-375340 210990,0 382540,168420 382540,375340 -60,207130 -171570,375650 -382540,375650zm7226440 -9109480c786760,0 1424540,637790 1424540,1424530 0,334320 -115210,641690 -308010,884710 -2830,-3150 -5780,-6200 -8900,-9110 -37000,-34490 -68250,-82700 -77410,-149640 28940,-22540 47430,-57450 47430,-96740 0,-52920 -33980,-98350 -81400,-114950l-2010 -485210c44300,-22200 72900,-66840 74480,-116280 1550,-49530 -24100,-95890 -66880,-120800l-916750 -534300c-39330,-22990 -87560,-24510 -128250,-4160l-949440 475150c-44140,22120 -72940,66720 -74390,116250 -1460,49520 24190,95900 66970,120790l916770 534440c39150,23020 87560,24550 128210,4170l786740 -393800 -60 -20 60 0 80460 -40310 1900 444360c-46940,16990 -80450,61970 -80450,114670 0,33570 13670,64110 35750,86110 -21390,71820 -52640,221580 11880,336850 8660,15440 20170,28820 33770,39590 -247510,207680 -566630,332780 -915010,332780 -786750,0 -1424530,-637810 -1424530,-1424550 0,-786740 637780,-1424530 1424530,-1424530zm-7226380 -5951140c222000,0 401970,-218570 401970,-488260 0,-269670 -59080,-488260 -401970,-488260 -342880,0 -402000,218590 -402000,488260 0,269690 180000,488260 402000,488260zm758370 725800c-7420,-469730 -68800,-603590 -538250,-688320 0,0 -66100,84220 -220120,84220 -154050,0 -220110,-84220 -220110,-84220 -464370,83780 -529470,215660 -538030,673090 -680,37340 -1030,39270 -1150,34960 -40,-16470 -120,-4630 0,0 20,8140 60,23160 60,49350 0,0 111790,225330 759230,225330 647430,0 759210,-225330 759210,-225330 0,-16840 20,-28540 40,-36520 180,-4510 40,-31220 0,0 -140,2710 -380,-2520 -880,-32560z"/>
 </g>
</svg>
